<svg width="8" height="15" viewBox="0 0 8 15" fill="none" xmlns="http://www.w3.org/2000/svg">
<path fill-rule="evenodd" clip-rule="evenodd" d="M7.70711 2.20711C8.09763 1.81658 8.09763 1.18342 7.70711 0.792893C7.31658 0.402369 6.68342 0.402369 6.29289 0.792893L0.293282 6.7925C0.293152 6.79263 0.293023 6.79276 0.292893 6.79289C0.244078 6.84171 0.201364 6.89432 0.164752 6.94977C0.0528097 7.11931 -0.00208755 7.31543 6.06736e-05 7.51105C0.000722817 7.57134 0.00680453 7.63159 0.0183058 7.69099C0.0549175 7.88009 0.146447 8.06066 0.292893 8.20711L6.29289 14.2071C6.68342 14.5976 7.31658 14.5976 7.70711 14.2071C8.09763 13.8166 8.09763 13.1834 7.70711 12.7929L2.41421 7.5L7.70711 2.20711Z" fill="#171725"/>
</svg>
