<svg width="21" height="20" viewBox="0 0 21 20" fill="none" xmlns="http://www.w3.org/2000/svg">
<path fill-rule="evenodd" clip-rule="evenodd" d="M14.2633 14.5571C12.8341 15.7517 10.9937 16.4706 8.98529 16.4706C4.43707 16.4706 0.75 12.7835 0.75 8.23529C0.75 3.68707 4.43707 0 8.98529 0C13.5335 0 17.2206 3.68707 17.2206 8.23529C17.2206 10.0085 16.6602 11.6508 15.7068 12.9948C15.8824 13.0496 16.0477 13.1466 16.1868 13.2858L20.4054 17.5043C20.8649 17.9638 20.8649 18.7087 20.4054 19.1681C19.946 19.6276 19.2011 19.6276 18.7416 19.1681L14.5231 14.9495C14.4073 14.8338 14.3208 14.7 14.2633 14.5571ZM14.8676 8.23529C14.8676 11.484 12.234 14.1176 8.98529 14.1176C5.73656 14.1176 3.10294 11.484 3.10294 8.23529C3.10294 4.98656 5.73656 2.35294 8.98529 2.35294C12.234 2.35294 14.8676 4.98656 14.8676 8.23529Z" fill="#696974"/>
</svg>
