<svg width="20" height="20" viewBox="0 0 20 20" fill="none" xmlns="http://www.w3.org/2000/svg">
<path fill-rule="evenodd" clip-rule="evenodd" d="M6.36364 10C6.36363 7.99169 7.99169 6.36364 10 6.36364C12.0083 6.36364 13.6364 7.99169 13.6364 10C13.6364 12.0083 12.0083 13.6364 10 13.6364C7.99169 13.6364 6.36364 12.0083 6.36364 10ZM8.18182 10C8.18182 8.99585 8.99584 8.18182 10 8.18182C11.0042 8.18182 11.8182 8.99585 11.8182 10C11.8182 11.0042 11.0042 11.8182 10 11.8182C8.99585 11.8182 8.18182 11.0042 8.18182 10Z" fill="#171725"/>
<path fill-rule="evenodd" clip-rule="evenodd" d="M8.18182 20L7.37828 16.7858C7.26873 16.7435 7.16045 16.6986 7.05354 16.6511L4.0586 18.4481L1.4873 15.8768L3.30545 12.8465C3.27381 12.7722 3.24337 12.6973 3.21416 12.6217L-7.15277e-07 11.8182L-1.03318e-06 8.18182L3.21416 7.37828C3.24831 7.28994 3.28414 7.20243 3.32161 7.11579L1.4873 4.0586L4.0586 1.48731L7.11578 3.32161C7.20242 3.28415 7.28993 3.24832 7.37828 3.21416L8.18182 1.03318e-06L11.8182 7.15277e-07L12.6217 3.21416C12.7101 3.24832 12.7976 3.28415 12.8842 3.32161L15.9414 1.48731L18.5127 4.0586L16.6784 7.11579C16.7159 7.20243 16.7517 7.28994 16.7858 7.37828L20 8.18182L20 11.8182L16.7858 12.6217C16.7566 12.6973 16.7262 12.7722 16.6945 12.8465L18.5127 15.8768L15.9414 18.4481L12.9465 16.6511C12.8395 16.6986 12.7313 16.7435 12.6217 16.7858L11.8182 20L8.18182 20ZM4.34045 16.1586L3.77676 15.5949L5.34142 12.9872L4.97833 12.1343C4.95465 12.0787 4.93187 12.0226 4.91002 11.9661L4.56998 11.0865L1.81818 10.3986L1.81818 9.60141L4.56996 8.91347L4.91001 8.03393C4.93558 7.9678 4.96239 7.90232 4.99042 7.8375L5.36094 6.98075L3.77675 4.34045L4.34044 3.77676L6.98073 5.36093L7.83747 4.99043C7.90231 4.96239 7.96781 4.93558 8.03391 4.91002L8.91346 4.56997L9.60141 1.81818L10.3986 1.81818L11.0865 4.56997L11.9661 4.91002C12.0322 4.93558 12.0977 4.96239 12.1625 4.99043L13.0193 5.36093L15.6596 3.77676L16.2232 4.34045L14.6391 6.98074L15.0096 7.83748C15.0376 7.90233 15.0644 7.96782 15.09 8.03392L15.43 8.91346L18.1818 9.60141L18.1818 10.3986L15.43 11.0865L15.09 11.9661C15.0681 12.0226 15.0453 12.0787 15.0217 12.1343L14.6586 12.9872L16.2232 15.5949L15.6596 16.1586L13.0722 14.6062L12.2091 14.9892C12.1291 15.0247 12.0481 15.0583 11.9661 15.09L11.0865 15.43L10.3986 18.1818L9.60141 18.1818L8.91346 15.43L8.03392 15.09C7.95195 15.0583 7.87092 15.0247 7.79089 14.9892L6.92778 14.6062L4.34045 16.1586Z" fill="#171725"/>
</svg>
