<svg width="40" height="40" viewBox="0 0 40 40" fill="none" xmlns="http://www.w3.org/2000/svg">
<rect width="40" height="40" rx="20" fill="#2ECC71" fill-opacity="0.15"/>
<path fill-rule="evenodd" clip-rule="evenodd" d="M15.2997 12L13.0775 17H14H26H26.9224L24.7002 12H15.2997ZM11.5387 19H12V28C12 29.1046 12.8954 30 14 30H19.01H20.99H26C27.1045 30 28 29.1046 28 28V19H28.4612C29.1849 19 29.6689 18.2551 29.375 17.5939L26.2639 10.5939C26.1034 10.2327 25.7453 10 25.3501 10H14.6498C14.2546 10 13.8965 10.2327 13.736 10.5939L10.6249 17.5939C10.331 18.2551 10.8151 19 11.5387 19ZM22.9999 28H26V19H14V28H17C17 27.9967 17 27.9933 17 27.99V24.01C17 22.8999 17.8999 22 19.01 22H20.99C22.1001 22 23 22.8999 23 24.01V27.99C23 27.9933 23 27.9967 22.9999 28ZM19.01 28H20.99C20.9955 28 21 27.9955 21 27.99V24.01C21 24.0045 20.9955 24 20.99 24H19.01C19.0044 24 19 24.0045 19 24.01V27.99C19 27.9955 19.0044 28 19.01 28Z" fill="#2ECC71"/>
</svg>
